<svg width="357" height="269" viewBox="0 0 357 269" fill="none" xmlns="http://www.w3.org/2000/svg">
<path fill-rule="evenodd" clip-rule="evenodd" d="M128.02 158.312L178.536 192.852L227.231 159.258L336.383 266.947C333.509 267.875 330.439 268.375 327.244 268.375H29.756C25.829 268.375 22.0805 267.607 18.6354 266.233L128.02 158.312ZM357 69.8116V238.619C357 243.028 356.036 247.205 354.323 250.971L247.33 145.406L357 69.8116ZM1.68433e-05 70.7576L107.85 144.514L1.89212 249.079C0.637187 245.735 -0.00378837 242.191 1.68433e-05 238.619V70.7576ZM327.244 0.625C343.666 0.625 357 13.9411 357 30.3809V40.841L178.464 163.917L1.68433e-05 41.8585V30.3809C1.68433e-05 13.9589 13.3161 0.625 29.756 0.625H327.244Z" fill="white"/>
</svg>
