<svg width="449" height="448" viewBox="0 0 449 448" fill="#ffffff" xmlns="http://www.w3.org/2000/svg">
<path d="M435.16 271.6C438.455 256.777 440.098 241.635 440.06 226.45C440.06 110.13 344.37 15.75 226.27 15.75C214.035 15.7411 201.82 16.7446 189.75 18.75C170.013 6.42831 147.198 -0.0709481 123.93 2.55211e-06C55.5499 2.55211e-06 -6.51059e-05 54.72 -6.51059e-05 122.15C-0.0728234 143.93 5.80541 165.317 16.9999 184C14.137 197.935 12.6897 212.124 12.6799 226.35C12.6799 342.79 108.37 437.05 226.35 437.05C239.46 437.083 252.545 435.912 265.44 433.55C283.515 443.068 303.642 448.029 324.07 448C392.57 448 448 393.28 448 325.85C448.114 307.001 443.712 288.398 435.16 271.6ZM336 327C326.08 340.76 311.49 351.73 292.59 359.43C273.69 367.13 251.36 371 225.69 371C195 371 169.33 365.63 149.14 355.13C135.144 347.764 123.073 337.214 113.9 324.33C104.79 311.5 100.24 298.67 100.24 286.33C100.24 278.63 103.24 271.98 109.11 266.38C114.95 261.01 122.53 258.21 131.4 258.21C138.75 258.21 145.05 260.31 150.19 264.63C155.09 268.71 159.29 274.78 162.67 282.71C165.946 290.305 170.083 297.499 175 304.15C179.213 309.63 185.167 314.18 192.86 317.8C200.68 321.42 211.06 323.28 223.86 323.28C241.48 323.28 255.95 319.55 266.8 312.2C277.54 305.08 282.68 296.45 282.68 285.95C282.68 277.67 279.99 271.13 274.39 266C268.56 260.63 260.97 256.43 251.52 253.63C241.83 250.63 228.65 247.45 212.31 244.07C190.14 239.4 171.31 233.8 156.31 227.5C141.03 221.08 128.66 212.1 119.55 201.02C110.33 189.7 105.78 175.47 105.78 158.78C105.623 143.355 110.727 128.336 120.25 116.2C129.82 103.95 143.71 94.38 161.8 87.85C179.54 81.32 200.66 78.05 224.46 78.05C243.6 78.05 260.29 80.27 274.29 84.47C288.29 88.67 300.2 94.62 309.65 101.85C319.1 109.08 325.99 116.78 330.42 124.85C334.85 132.92 337.08 141.07 337.08 148.85C337.08 156.31 334.16 163.2 328.32 169.15C325.488 172.097 322.077 174.427 318.301 175.993C314.525 177.559 310.467 178.327 306.38 178.25C298.45 178.25 292.26 176.38 287.95 172.65C283.95 169.15 279.78 163.78 275.23 155.96C269.86 146.05 263.44 138.11 256.09 132.51C248.85 127.15 236.95 124.35 220.38 124.35C205.09 124.35 192.61 127.35 183.38 133.35C174.51 139.07 170.19 145.72 170.19 153.53C170.08 158.005 171.617 162.364 174.51 165.78C178.029 169.829 182.364 173.09 187.23 175.35C192.71 178.104 198.456 180.292 204.38 181.88C210.38 183.52 220.25 185.97 233.91 189C251.29 192.62 267.16 196.82 281.17 201.13C295.41 205.68 307.66 211.13 317.69 217.58C327.652 223.869 335.941 232.478 341.85 242.67C347.57 252.67 350.49 265.3 350.49 279.77C351.125 296.697 346.019 313.342 336 327Z" fill="white"/>
</svg>
