<svg width="512" height="385" viewBox="0 0 512 385" fill="#ffffff" xmlns="http://www.w3.org/2000/svg">
<path d="M508.646 84.79C508.646 39.79 475.546 3.59 434.646 3.59C379.246 0.999996 322.746 0 265.006 0H247.006C189.406 0 132.806 0.999999 77.4061 3.6C36.6061 3.6 3.50608 40 3.50608 85C1.00608 120.59 -0.0539189 156.19 0.00608108 191.79C-0.0939189 227.39 1.03941 263.023 3.40608 298.69C3.40608 343.69 36.5061 380.19 77.3061 380.19C135.506 382.89 195.206 384.09 255.906 383.99C316.706 384.19 376.239 382.923 434.506 380.19C475.406 380.19 508.506 343.69 508.506 298.69C510.906 262.99 512.006 227.39 511.906 191.69C512.133 156.09 511.046 120.457 508.646 84.79ZM207.006 289.89V93.39L352.006 191.59L207.006 289.89Z" fill="white"/>
</svg>
