<svg width="365" height="170" viewBox="0 0 365 170" fill="none" xmlns="http://www.w3.org/2000/svg">
<path d="M120.53 124H110.63V54.15H86.1V45.46H144.95V54.15H120.53V124ZM207.855 124H197.955V54.15H173.095C172.581 58.1833 172.031 62.4367 171.445 66.91C170.858 71.31 170.235 75.6733 169.575 80C168.988 84.3267 168.401 88.3967 167.815 92.21C167.228 96.0233 166.641 99.36 166.055 102.22C165.101 107.133 163.928 111.313 162.535 114.76C161.141 118.207 159.271 120.81 156.925 122.57C154.651 124.33 151.645 125.21 147.905 125.21C146.658 125.21 145.375 125.063 144.055 124.77C142.808 124.55 141.708 124.257 140.755 123.89V115.64C141.561 116.007 142.478 116.337 143.505 116.63C144.531 116.85 145.631 116.96 146.805 116.96C149.005 116.96 150.728 116.08 151.975 114.32C153.295 112.487 154.321 110.25 155.055 107.61C155.788 104.897 156.411 102.22 156.925 99.58C157.365 97.4533 157.878 94.63 158.465 91.11C159.051 87.5167 159.675 83.3367 160.335 78.57C161.068 73.8033 161.801 68.6333 162.535 63.06C163.341 57.4133 164.111 51.5467 164.845 45.46H207.855V124ZM275.615 63.83C275.615 69.1833 273.929 73.4367 270.555 76.59C267.182 79.67 262.672 81.65 257.025 82.53V82.97C263.625 83.85 268.649 85.9033 272.095 89.13C275.542 92.3567 277.265 96.5733 277.265 101.78C277.265 106.4 276.092 110.47 273.745 113.99C271.399 117.437 267.879 120.15 263.185 122.13C258.492 124.11 252.625 125.1 245.585 125.1C241.332 125.1 237.262 124.77 233.375 124.11C229.562 123.523 226.005 122.423 222.705 120.81V111.79C224.979 112.89 227.399 113.843 229.965 114.65C232.605 115.383 235.245 115.97 237.885 116.41C240.525 116.777 243.055 116.96 245.475 116.96C252.515 116.96 257.832 115.64 261.425 113C265.092 110.36 266.925 106.62 266.925 101.78C266.925 96.7933 264.799 93.1633 260.545 90.89C256.292 88.6167 250.352 87.48 242.725 87.48H231.505V79.23H242.175C247.382 79.23 251.672 78.6433 255.045 77.47C258.492 76.2967 261.059 74.6467 262.745 72.52C264.505 70.32 265.385 67.7533 265.385 64.82C265.385 60.86 263.919 57.8167 260.985 55.69C258.052 53.5633 254.239 52.5 249.545 52.5C244.632 52.5 240.525 53.1233 237.225 54.37C233.999 55.6167 230.845 57.23 227.765 59.21L223.035 52.5C225.089 50.96 227.435 49.6033 230.075 48.43C232.789 47.1833 235.795 46.1933 239.095 45.46C242.395 44.7267 245.915 44.36 249.655 44.36C255.302 44.36 260.032 45.2033 263.845 46.89C267.732 48.5767 270.665 50.8867 272.645 53.82C274.625 56.68 275.615 60.0167 275.615 63.83Z" fill="white"/>
<path fill-rule="evenodd" clip-rule="evenodd" d="M182.5 170C283.292 170 365 131.944 365 85C365 38.0558 283.292 0 182.5 0C81.708 0 0 38.0558 0 85C0 131.944 81.708 170 182.5 170ZM182.5 155.324C266.554 155.324 334.693 123.565 334.693 84.3885C334.693 45.212 266.554 13.4532 182.5 13.4532C98.446 13.4532 30.3069 45.212 30.3069 84.3885C30.3069 123.565 98.446 155.324 182.5 155.324Z" fill="#D9D9D9"/>
</svg>
