<svg width="43" height="46" viewBox="0 0 43 46" fill="none" xmlns="http://www.w3.org/2000/svg">
<g clip-path="url(#clip0_305_2)">
<path fill-rule="evenodd" clip-rule="evenodd" d="M21.3562 42.5723L3.09108 32.877V13.0663C4.63449 12.2499 6.0905 11.4675 7.68294 10.6319C8.11995 10.4038 8.28197 10.2567 8.75735 10.0222L16.8112 5.71171C17.2397 5.49853 17.5147 5.37488 17.9389 5.15318L21.3562 3.23031C21.7228 3.42431 22.1066 3.60764 22.4796 3.79097C26.0077 5.54116 30.4162 8.16112 33.9998 9.97527C34.4112 10.1842 34.7736 10.3462 35.2213 10.5807L37.4852 11.8299C37.8903 12.0857 38.2335 12.2328 38.6854 12.4567C39.0968 12.6613 39.5339 12.9683 39.9027 13.0663V32.7363C39.1139 33.1541 38.4509 33.5336 37.6067 33.9535L29.5529 38.2619C29.0519 38.5113 28.794 38.6733 28.3804 38.9163C28.0436 39.1146 27.6151 39.3043 27.2591 39.4812C26.8007 39.7072 26.5407 39.9033 26.0909 40.1378L23.7949 41.3551C23.343 41.581 22.9998 41.7239 22.5947 41.9797C22.3325 42.146 21.6866 42.5702 21.3583 42.5702L21.3562 42.5723ZM0 11.5208V34.4225C0.424224 34.5206 0.358139 34.527 0.675774 34.7316C0.91027 34.8808 1.04244 34.9448 1.31318 35.0791C4.68565 36.7504 8.55057 39.0527 11.9444 40.7454C12.1767 40.8626 12.3323 40.9287 12.601 41.0715L18.6424 44.3033C18.9728 44.476 18.9963 44.5293 19.2521 44.6785L20.6569 45.3799C21.5523 45.8339 21.1089 46.1196 22.6779 45.156L25.3383 43.7427C25.8542 43.4868 26.2593 43.3163 26.724 43.0221L42.853 34.4225V11.3801C42.3073 11.2522 41.9875 11.0113 41.5335 10.732L21.3562 -0.00146484L20.7465 0.373728C18.6509 1.40338 15.6387 3.21752 13.4409 4.30686C12.4304 4.80783 11.6459 5.27895 10.6781 5.7586C8.3246 6.92469 5.22926 8.76655 2.71802 10.0222L0.00213178 11.5208H0Z" fill="white"/>
<path fill-rule="evenodd" clip-rule="evenodd" d="M3.65387 13.4884H39.342L21.5715 3.86125C21.5566 3.84846 21.5224 3.81648 21.4969 3.79517L6.97731 11.6167C6.40812 11.8981 3.91181 13.1345 3.65173 13.4905L3.65387 13.4884Z" fill="white"/>
<path fill-rule="evenodd" clip-rule="evenodd" d="M25.2275 36.761C25.2275 35.5907 25.5941 36.0128 25.7796 35.548C26.0184 33.2777 25.4236 33.6444 27.7664 33.6444L27.8496 35.6887C28.2141 36.0767 28.1288 35.9723 28.1288 36.6758L27.7238 36.6885L27.5298 36.1385L25.9992 36.1279L25.8457 36.7248L25.2296 36.7632L25.2275 36.761ZM18.0434 33.6401L18.7767 33.6529L19.719 36.1108L19.056 36.1194L18.8257 35.5118C18.5465 35.5118 18.2651 35.5118 17.9858 35.5118L17.7236 36.1215C17.6874 36.2046 17.3378 36.0874 17.0393 36.0575L18.0455 33.6401H18.0434ZM22.6587 35.2666C22.211 33.2308 24.9141 33.1157 25.2765 34.4459C25.8265 36.469 22.9785 36.7184 22.6587 35.2666ZM20.0515 36.1194L20.0046 33.6337C20.6314 33.6124 22.4817 33.4589 22.0554 34.5696L21.8721 34.8957C22.2153 35.1025 22.2814 35.0364 22.2707 35.6291C21.8081 36.2942 21.0833 36.0938 20.0515 36.1172V36.1194ZM14.8116 34.0835C14.9907 33.1498 17.7257 33.4994 16.4957 34.8019C17.9368 35.7783 15.4959 36.842 14.6475 35.7015C15.061 35.5566 15.0909 35.9403 15.7261 35.9104C16.2527 35.8849 16.5703 35.5246 16.1887 35.0705L15.2849 34.8808C14.0932 34.7529 16.2996 34.836 16.2484 34.0494C15.7688 33.7637 15.2806 33.9428 14.8137 34.0856L14.8116 34.0835ZM21.4969 42.0095L23.699 40.8413C24.1339 40.6132 24.298 40.4661 24.7734 40.2294L38.0736 33.1562C38.323 33.0112 38.2804 32.9984 38.5895 32.83L39.1992 32.4548H3.65173L9.13041 35.4073C9.51626 35.6312 9.7337 35.7783 10.2091 36.0149L21.4969 42.0095Z" fill="white"/>
<path fill-rule="evenodd" clip-rule="evenodd" d="M4.6366 30.9116L13.6284 19.3914L13.6263 29.931C13.6135 31.0864 13.4771 31.0544 14.6112 31.0544C14.9352 31.0544 15.0333 30.9563 15.0333 30.6323V15.3176C15.0333 14.7804 15.0759 15.2664 14.8926 14.8955C14.5792 15.0085 14.6773 14.9765 14.4876 15.194L12.2215 18.2659C11.8143 18.8478 9.96605 21.504 9.55461 21.7812V14.8976H4.6366V30.9137V30.9116Z" fill="white"/>
<path fill-rule="evenodd" clip-rule="evenodd" d="M15.4554 23.3246H31.3329V31.0502H35.8267V23.3246H38.3571V21.7791H15.4554V23.3246Z" fill="white"/>
<path fill-rule="evenodd" clip-rule="evenodd" d="M25.1678 28.9225L25.1465 25.5756C27.4786 25.5756 28.0969 25.2238 28.1267 26.8312C28.1715 29.3936 27.9476 28.9225 25.1699 28.9225H25.1678ZM21.0918 25.5756L21.094 28.9225C18.9792 28.9225 18.1351 29.481 18.1351 27.2576C18.1351 25.0043 18.9494 25.5756 21.0918 25.5756ZM21.0748 24.8678H16.8603C15.1207 24.8678 15.4554 26.8781 15.4554 28.2403C15.4554 30.1738 18.7 29.6452 21.0748 29.6452V31.05H25.1486V29.6452C31.2839 29.6452 30.768 30.0843 30.768 26.132C30.768 25.3752 30.073 24.8678 29.3631 24.8678H25.1486V23.7444H21.0748V24.8678Z" fill="white"/>
<path fill-rule="evenodd" clip-rule="evenodd" d="M23.9783 14.7569L23.8845 21.2184H25.1486L25.2893 18.5494L25.8649 21.1373L26.8967 21.1992L27.3657 18.6176L27.5362 21.2184H28.8003L28.7641 14.7441C28.261 14.7484 27.7579 14.7505 27.2548 14.7548L26.4128 17.7052H26.2721L25.4279 14.7548L23.9761 14.7569H23.9783Z" fill="white"/>
<path fill-rule="evenodd" clip-rule="evenodd" d="M21.9254 20.0971L21.9168 16.1575L22.3389 16.1554V20.1013L21.9254 20.0971ZM18.6851 15.1748V21.2162H20.0899L20.0259 18.3213L20.5397 18.3234C20.5397 20.3102 20.2135 21.3548 22.1982 21.3548C24.2959 21.3548 23.7438 19.9137 23.7438 16.0168C23.7438 14.3796 20.512 14.0961 20.512 16.2982V17.281H20.0899V14.7527C19.0837 14.7527 18.6851 14.6141 18.6851 15.1748Z" fill="white"/>
<path fill-rule="evenodd" clip-rule="evenodd" d="M6.32288 31.0501L12.2236 30.7687V23.041C11.825 23.3331 7.72559 29.0526 7.04981 29.9501C6.66396 30.4639 6.44226 30.6088 6.32288 31.0501Z" fill="white"/>
<path fill-rule="evenodd" clip-rule="evenodd" d="M36.6347 18.6217L36.9395 18.6558C36.9395 19.0779 36.9502 19.8091 36.9502 20.2333H36.6688L36.6325 18.6217H36.6347ZM35.2661 21.2161C38.7409 21.2161 38.3571 21.5998 38.3571 18.125C38.3571 17.1742 37.4724 17.1422 36.6709 17.1422C36.6709 14.3773 36.9885 14.7547 35.2661 14.7547V21.2182V21.2161Z" fill="white"/>
<path fill-rule="evenodd" clip-rule="evenodd" d="M28.9432 15.1747V21.2162H31.7529V20.3741H30.4887V18.2658H31.6122C31.6122 17.1658 31.723 17.283 30.4887 17.283V15.7375H31.7529C31.7529 14.5245 32.0279 14.7547 29.3653 14.7547C29.0412 14.7547 28.9432 14.8528 28.9432 15.1768V15.1747Z" fill="white"/>
<path fill-rule="evenodd" clip-rule="evenodd" d="M15.5961 14.9041V15.7376H16.2975V21.2163H17.843V15.7376H18.5465L18.5444 14.9168L15.5961 14.9041Z" fill="white"/>
<path fill-rule="evenodd" clip-rule="evenodd" d="M23.2599 35.4478C23.9079 36.4497 24.8885 36.1918 24.6263 34.465C23.9484 33.348 22.8442 34.2135 23.2599 35.4478Z" fill="white"/>
<path fill-rule="evenodd" clip-rule="evenodd" d="M27.2569 35.8444V33.9897H26.3808C26.3424 34.6101 26.319 35.3477 26.1378 35.8252L27.2569 35.8444Z" fill="white"/>
<path fill-rule="evenodd" clip-rule="evenodd" d="M20.9341 35.8445C22.1108 35.8445 22.0724 34.9854 20.9362 34.9854H20.4821V35.8445H20.9362H20.9341Z" fill="white"/>
<path fill-rule="evenodd" clip-rule="evenodd" d="M20.4821 34.7188C21.1771 34.7166 21.7185 34.8253 21.5651 34.0856C21.1707 33.8277 21.1195 33.9151 20.5184 33.9087L20.4821 34.7188Z" fill="white"/>
<path fill-rule="evenodd" clip-rule="evenodd" d="M17.8878 35.2135L18.8556 35.2518L18.4207 34.0239L17.8878 35.2135Z" fill="white"/>
<path fill-rule="evenodd" clip-rule="evenodd" d="M27.257 35.8445C27.144 35.6612 27.0523 34.4461 27.257 33.9899C27.0587 33.9899 27.0694 33.9899 26.8413 33.9899C26.6089 34.0069 26.6558 33.9771 26.6601 33.9899C26.6281 33.9984 26.6515 34.0091 26.626 34.0176C26.6004 34.0261 26.4128 33.9686 26.3808 33.9899H27.257V35.8445Z" fill="#33456C"/>
<path fill-rule="evenodd" clip-rule="evenodd" d="M33.194 21.216H31.8936V14.7525C32.6431 14.7525 33.0083 14.6895 33.1809 14.8431C33.4113 15.0481 33.2984 15.639 33.2984 17.2808H33.5798C33.5798 15.6326 33.4698 15.0425 33.7005 14.8394C33.8735 14.6871 34.2382 14.7525 34.9846 14.7525V21.216H33.6267V17.8308H33.194V21.216Z" fill="white"/>
</g>
<defs>
<clipPath id="clip0_305_2">
<rect width="42.853" height="45.8003" fill="white"/>
</clipPath>
</defs>
</svg>
