<svg width="44" height="42" viewBox="0 0 44 42" fill="none" xmlns="http://www.w3.org/2000/svg">
<path d="M2 40H42" stroke="white" stroke-width="4" stroke-linecap="round" stroke-linejoin="round"/>
<path d="M12 24H8C6.89543 24 6 24.8954 6 26V38C6 39.1046 6.89543 40 8 40H12C13.1046 40 14 39.1046 14 38V26C14 24.8954 13.1046 24 12 24Z" stroke="white" stroke-width="4" stroke-linejoin="round"/>
<path d="M10 32H11" stroke="white" stroke-width="4" stroke-linecap="square" stroke-linejoin="round"/>
<path d="M36 2H16C14.8954 2 14 2.89543 14 4V38C14 39.1046 14.8954 40 16 40H36C37.1046 40 38 39.1046 38 38V4C38 2.89543 37.1046 2 36 2Z" stroke="white" stroke-width="4" stroke-linejoin="round"/>
<path d="M20 8H24V12H20V8ZM28 8H32V12H28V8ZM20 15H24V19H20V15ZM28 15H32V19H28V15ZM28 22H32V26H28V22ZM28 29H32V33H28V29Z" fill="white"/>
</svg>
